<svg width="100" height="100" viewBox="0 0 100 100" fill="none" xmlns="http://www.w3.org/2000/svg">
<rect width="100" height="100" fill="#C5A059"/>
<path d="M51.37 17C52.33 17 53.35 17.06 54.43 17.18C55.57 17.3 56.65 17.48 57.67 17.72C58.75 17.9 59.71 18.11 60.55 18.35C61.45 18.53 62.14 18.74 62.62 18.98V28.97H61.81C61.81 26.09 60.82 23.84 58.84 22.22C56.86 20.54 54.46 19.7 51.64 19.7C48.34 19.7 45.67 20.75 43.63 22.85C41.59 24.89 40.57 27.29 40.57 30.05C40.57 31.19 40.81 32.54 41.29 34.1C41.83 35.6 42.79 37.01 44.17 38.33L61.9 54.71C63.7 56.39 64.9 58.19 65.5 60.11C66.1 62.03 66.4 63.89 66.4 65.69C66.4 70.67 64.87 74.72 61.81 77.84C58.81 80.96 54.73 82.52 49.57 82.52C48.13 82.52 46.42 82.37 44.44 82.07C42.52 81.77 40.63 81.26 38.77 80.54C36.97 79.76 35.47 78.77 34.27 77.57C34.09 76.61 34 75.41 34 73.97C34 72.53 34.12 71.03 34.36 69.47C34.6 67.85 34.93 66.38 35.35 65.06H36.16C35.86 68.12 36.25 70.79 37.33 73.07C38.41 75.35 39.97 77.09 42.01 78.29C44.11 79.43 46.48 79.94 49.12 79.82C52.42 79.64 55.24 78.5 57.58 76.4C59.98 74.24 61.18 71.36 61.18 67.76C61.18 66.02 60.88 64.46 60.28 63.08C59.68 61.64 58.81 60.41 57.67 59.39L40.39 43.37C38.59 41.69 37.33 39.86 36.61 37.88C35.89 35.84 35.53 33.95 35.53 32.21C35.53 29.69 36.13 27.26 37.33 24.92C38.53 22.58 40.3 20.69 42.64 19.25C45.04 17.75 47.95 17 51.37 17ZM62.62 17.9V19.79H55.78V17.9H62.62Z" fill="#F8F5EE"/>
</svg>
